Coordinates
version=1
nRows=38
nColumns=38
inDegrees=no

Units are S.I. units (second, meters, Newtons, ...)
If the header above contains a line with 'inDegrees', this indicates whether rotational values are in degrees (yes) or radians (no).

endheader
time	pelvis_tilt	pelvis_list	pelvis_rotation	pelvis_tx	pelvis_ty	pelvis_tz	hip_flexion_r	hip_adduction_r	hip_rotation_r	knee_angle_r	ankle_angle_r	subtalar_angle_r	mtp_angle_r	hip_flexion_l	hip_adduction_l	hip_rotation_l	knee_angle_l	ankle_angle_l	subtalar_angle_l	mtp_angle_l	lumbar_extension	lumbar_bending	lumbar_rotation	arm_flex_r	arm_add_r	arm_rot_r	elbow_flex_r	pro_sup_r	wrist_flex_r	wrist_dev_r	arm_flex_l	arm_add_l	arm_rot_l	elbow_flex_l	pro_sup_l	wrist_flex_l	wrist_dev_l
20	1.00646	1.45734	0.39652	0.659629	1.1632	0.972161	0.0976843	0.0511977	-0.16207	0.304332	0.146707	0	0	-0.0672902	-0.0638787	-0.242398	0	0.0652177	0	0	-0.0731601	0.148185	0.0968766	-0.319385	-0.47693	0.101311	1.49031	1.54197	0	0	-0.483576	-0.184582	0.00818799	1.57336	1.3838	0	0
20.01	1.02189	1.45787	0.381339	0.65969	1.1633	0.972165	0.0960154	0.0514225	-0.161782	0.305069	0.14729	0	0	-0.0693405	-0.0640993	-0.242655	0	0.0659373	0	0	-0.0738455	0.148332	0.0967689	-0.313393	-0.47719	0.101023	1.48918	1.54094	0	0	-0.478722	-0.183756	0.0090635	1.57384	1.3835	0	0
20.02	1.00748	1.46001	0.397185	0.660059	1.16365	0.972067	0.0967126	0.0493676	-0.162938	0.305464	0.148508	0	0	-0.0685248	-0.0621556	-0.240474	0	0.0654742	0	0	-0.072014	0.144562	0.102779	-0.31572	-0.471937	0.0910887	1.48872	1.538	0	0	-0.466489	-0.18601	0.0145198	1.56886	1.38858	0	0
20.03	1.02064	1.45818	0.382416	0.659721	1.16373	0.972072	0.0965482	0.0514005	-0.160678	0.30632	0.147752	0	0	-0.0695827	-0.0638267	-0.242252	0	0.0662235	0	0	-0.0721887	0.14925	0.0933461	-0.297119	-0.47996	0.107526	1.48615	1.5358	0	0	-0.476021	-0.175285	-0.00149376	1.5771	1.39093	0	0
20.04	0.997326	1.45624	0.405002	0.659806	1.1637	0.972035	0.100172	0.0521883	-0.158422	0.307115	0.146238	0	0	-0.0664221	-0.0643331	-0.242814	0	0.0658897	0	0	-0.0686928	0.152221	0.0872089	-0.284675	-0.482911	0.115162	1.48466	1.53515	0	0	-0.481803	-0.15607	-0.0263902	1.58053	1.39211	0	0
20.05	1.01579	1.45899	0.387896	0.660127	1.16366	0.972122	0.0973335	0.0506164	-0.160115	0.30828	0.147454	0	0	-0.0695305	-0.0630983	-0.241046	0	0.0654588	0	0	-0.0710272	0.149012	0.0951879	-0.287578	-0.478086	0.101791	1.48612	1.53323	0	0	-0.467056	-0.172651	-0.00205844	1.5792	1.3751	0	0
20.06	1.02412	1.45972	0.379565	0.660089	1.1639	0.972168	0.0965791	0.0502891	-0.160918	0.309188	0.14783	0	0	-0.0708929	-0.0629499	-0.24035	0	0.0650405	0	0	-0.0717507	0.149142	0.0948008	-0.279865	-0.479065	0.103155	1.48562	1.53063	0	0	-0.463514	-0.169051	-0.00653038	1.58031	1.37613	0	0
20.07	1.03023	1.46005	0.373206	0.660402	1.16368	0.972293	0.0960891	0.0503732	-0.160002	0.310049	0.147541	0	0	-0.0718671	-0.0630119	-0.240797	0	0.0652478	0	0	-0.0724888	0.149302	0.0946324	-0.271972	-0.479972	0.104945	1.48506	1.52926	0	0	-0.459569	-0.165636	-0.0107201	1.58125	1.37712	0	0
20.08	1.05094	1.46065	0.351239	0.660383	1.16389	0.972352	0.0937886	0.0508055	-0.159269	0.310264	0.147858	0	0	-0.0746929	-0.0632699	-0.242215	0	0.0655887	0	0	-0.0740216	0.149583	0.0936187	-0.260859	-0.482293	0.110105	1.48277	1.52788	0	0	-0.455953	-0.162264	-0.0145894	1.58257	1.37948	0	0
20.09	1.03392	1.46093	0.368343	0.660635	1.16386	0.972365	0.0960852	0.0499792	-0.159539	0.311286	0.147959	0	0	-0.0728024	-0.0626064	-0.241632	0	0.0649624	0	0	-0.0727694	0.149524	0.0945967	-0.255004	-0.481613	0.108665	1.48309	1.52682	0	0	-0.450851	-0.158291	-0.0193359	1.58192	1.38223	0	0
20.1	1.0301	1.46093	0.371898	0.660787	1.16375	0.972345	0.0977412	0.0495547	-0.16063	0.313676	0.149053	0	0	-0.0722431	-0.0625953	-0.241628	0	0.0649401	0	0	-0.0723229	0.149757	0.094045	-0.245986	-0.482806	0.111666	1.48193	1.52477	0	0	-0.446026	-0.154275	-0.0243911	1.58224	1.3847	0	0
20.11	0.980897	1.4602	0.421267	0.661327	1.16361	0.972324	0.103568	0.048371	-0.160127	0.314448	0.148513	0	0	-0.0664877	-0.0614592	-0.240766	0	0.0637183	0	0	-0.0676674	0.149844	0.094013	-0.24065	-0.481552	0.11073	1.48283	1.52359	0	0	-0.442728	-0.139785	-0.0428202	1.58056	1.3851	0	0
20.12	0.990277	1.46122	0.411431	0.661425	1.16378	0.97235	0.102166	0.0481398	-0.16038	0.314422	0.149014	0	0	-0.0679902	-0.0611904	-0.241035	0	0.063499	0	0	-0.0688563	0.149585	0.0952312	-0.233204	-0.48214	0.111348	1.48312	1.5219	0	0	-0.436009	-0.140386	-0.0418192	1.58133	1.3793	0	0
20.13	0.995893	1.46183	0.405549	0.661682	1.16372	0.972377	0.101109	0.0482429	-0.15977	0.313833	0.14885	0	0	-0.0688659	-0.0611597	-0.24091	0	0.0636906	0	0	-0.0695755	0.149448	0.096189	-0.225639	-0.482298	0.111612	1.48347	1.52103	0	0	-0.429183	-0.141581	-0.0407566	1.58239	1.37415	0	0
20.14	1.00043	1.46227	0.400713	0.661919	1.16363	0.972392	0.100343	0.0483904	-0.159313	0.313418	0.148773	0	0	-0.0694824	-0.061166	-0.241045	0	0.0641987	0	0	-0.0700267	0.1494	0.0967867	-0.217311	-0.482908	0.113058	1.48331	1.52019	0	0	-0.42244	-0.142939	-0.0398484	1.58368	1.36902	0	0
20.15	1.00058	1.46269	0.400326	0.662175	1.16354	0.972396	0.100287	0.0482937	-0.159226	0.313609	0.149	0	0	-0.0695994	-0.0610271	-0.241149	0	0.0641916	0	0	-0.0699674	0.149164	0.0974505	-0.2089	-0.483533	0.115108	1.48258	1.51916	0	0	-0.415347	-0.144904	-0.0385239	1.58471	1.36399	0	0
20.16	0.999293	1.46302	0.40152	0.662435	1.16343	0.972396	0.100508	0.0482169	-0.159434	0.313966	0.149239	0	0	-0.0694913	-0.0609518	-0.241026	0	0.0638468	0	0	-0.0696733	0.14893	0.098025	-0.200282	-0.484099	0.117932	1.48143	1.51768	0	0	-0.40779	-0.147466	-0.0366781	1.58543	1.35891	0	0
20.17	0.992852	1.46316	0.408331	0.662734	1.16331	0.972394	0.101245	0.0481413	-0.159917	0.314069	0.14932	0	0	-0.0686914	-0.0609831	-0.240139	0	0.0633355	0	0	-0.068914	0.148849	0.0988765	-0.192705	-0.483931	0.119503	1.48056	1.5162	0	0	-0.399381	-0.150708	-0.0339694	1.58504	1.35397	0	0
20.18	0.990492	1.46315	0.410777	0.662988	1.16321	0.972403	0.101602	0.048305	-0.160361	0.314162	0.14934	0	0	-0.0683238	-0.0612267	-0.239937	0	0.0629222	0	0	-0.0683128	0.149015	0.099281	-0.184187	-0.484019	0.121953	1.47911	1.51503	0	0	-0.391175	-0.153696	-0.0315848	1.58462	1.3495	0	0
20.19	0.98562	1.4633	0.415388	0.663277	1.16316	0.97242	0.102083	0.0482092	-0.160678	0.314183	0.149334	0	0	-0.0678677	-0.0611372	-0.240592	0	0.0625636	0	0	-0.0674592	0.148915	0.100152	-0.175993	-0.48392	0.123763	1.47774	1.51427	0	0	-0.382735	-0.156915	-0.0289859	1.58368	1.34588	0	0
20.2	0.983681	1.46338	0.417168	0.663687	1.1629	0.972492	0.102636	0.0480935	-0.161231	0.315147	0.149425	0	0	-0.0677044	-0.0611588	-0.241726	0	0.0625439	0	0	-0.0669286	0.148736	0.100606	-0.167466	-0.483559	0.125671	1.47607	1.51328	0	0	-0.374397	-0.159996	-0.0269607	1.583	1.34295	0	0
20.21	1.1093	1.46818	0.292282	0.663732	1.16265	0.972771	0.0883479	0.0481102	-0.164929	0.31644	0.153084	0	0	-0.0825299	-0.0616729	-0.243345	0	0.064293	0	0	-0.080532	0.14395	0.107287	-0.161063	-0.484109	0.123564	1.47412	1.50686	0	0	-0.351988	-0.188163	0.0108795	1.58364	1.32644	0	0
20.22	0.978991	1.46376	0.422496	0.664085	1.16299	0.972485	0.103214	0.047923	-0.163376	0.315491	0.150277	0	0	-0.0672243	-0.0612653	-0.241702	0	0.0618958	0	0	-0.0655409	0.148727	0.101622	-0.152053	-0.482096	0.128549	1.47416	1.50775	0	0	-0.357285	-0.166692	-0.021987	1.58137	1.32844	0	0
20.23	0.975684	1.46384	0.426664	0.664307	1.16286	0.972463	0.103733	0.0478858	-0.164186	0.315761	0.150592	0	0	-0.0666494	-0.0613858	-0.240947	0	0.0617744	0	0	-0.0649423	0.148682	0.101437	-0.143995	-0.481133	0.13031	1.47293	1.50737	0	0	-0.348325	-0.170013	-0.0203101	1.5805	1.32455	0	0
20.24	0.971797	1.46395	0.431376	0.664534	1.16272	0.972448	0.104397	0.0478009	-0.164681	0.316225	0.150637	0	0	-0.0659613	-0.0614487	-0.240172	0	0.061459	0	0	-0.0642726	0.14857	0.101265	-0.135877	-0.479993	0.132428	1.47128	1.50745	0	0	-0.339105	-0.173197	-0.0186722	1.57907	1.32111	0	0
20.25	0.969997	1.46412	0.434295	0.664872	1.16244	0.972504	0.104596	0.0477183	-0.164975	0.316628	0.150249	0	0	-0.0655952	-0.0615321	-0.239345	0	0.0611529	0	0	-0.0637805	0.148406	0.100794	-0.12786	-0.478377	0.134245	1.46905	1.50814	0	0	-0.329833	-0.176219	-0.017096	1.57697	1.31814	0	0
20.26	0.973788	1.46435	0.431881	0.665037	1.16241	0.972557	0.103954	0.0478593	-0.166137	0.31639	0.150124	0	0	-0.0658829	-0.0618756	-0.238204	0	0.0608218	0	0	-0.0636191	0.148633	0.100015	-0.119736	-0.476528	0.135733	1.46624	1.50924	0	0	-0.320673	-0.179057	-0.0155115	1.57436	1.3145	0	0
20.27	0.979026	1.46445	0.428384	0.665152	1.16237	0.972616	0.103229	0.0481249	-0.167718	0.316112	0.150136	0	0	-0.0661993	-0.062408	-0.236794	0	0.0604709	0	0	-0.0635584	0.149095	0.0989872	-0.111778	-0.474986	0.137607	1.46346	1.50938	0	0	-0.311488	-0.181806	-0.0142759	1.57146	1.31121	0	0
20.28	0.984454	1.46459	0.424786	0.665283	1.1623	0.972685	0.102496	0.0483597	-0.169078	0.315964	0.149942	0	0	-0.0664556	-0.0629108	-0.234988	0	0.0598419	0	0	-0.0635639	0.149481	0.0978916	-0.103791	-0.473352	0.139783	1.46052	1.50897	0	0	-0.302114	-0.184548	-0.0129532	1.56846	1.30693	0	0
20.29	0.986613	1.46495	0.423889	0.665319	1.16244	0.9727	0.102218	0.0482842	-0.170285	0.316047	0.150179	0	0	-0.0664963	-0.0630875	-0.233222	0	0.0588204	0	0	-0.0631714	0.149609	0.0972472	-0.0956761	-0.471649	0.14227	1.45714	1.50771	0	0	-0.29289	-0.187279	-0.0117503	1.56515	1.30252	0	0
20.3	0.982399	1.46517	0.429655	0.665676	1.16211	0.972749	0.102839	0.0480636	-0.170531	0.316708	0.150213	0	0	-0.0657582	-0.063091	-0.231839	0	0.0583161	0	0	-0.0624862	0.149349	0.096507	-0.0881792	-0.46943	0.144078	1.45411	1.50592	0	0	-0.283146	-0.190617	-0.0103755	1.56162	1.29912	0	0
20.31	0.990118	1.46552	0.423524	0.665812	1.16198	0.97281	0.102161	0.0481536	-0.17162	0.317167	0.150535	0	0	-0.0662346	-0.0634679	-0.230395	0	0.0576619	0	0	-0.062886	0.149455	0.0953801	-0.0799236	-0.467468	0.146404	1.45057	1.5026	0	0	-0.273608	-0.193512	-0.0092774	1.55831	1.29457	0	0
20.32	1.00199	1.46583	0.413439	0.6659	1.1619	0.972887	0.100874	0.048428	-0.172863	0.317168	0.150735	0	0	-0.067184	-0.0640458	-0.229323	0	0.0574584	0	0	-0.0635958	0.149762	0.0941651	-0.0716129	-0.465779	0.149116	1.44676	1.49794	0	0	-0.263918	-0.196369	-0.00793976	1.55458	1.2896	0	0
20.33	1.0096	1.46613	0.407393	0.666035	1.16182	0.972942	0.10013	0.0485605	-0.174077	0.31742	0.150766	0	0	-0.0678583	-0.0644178	-0.228727	0	0.0576913	0	0	-0.0637763	0.14991	0.0932649	-0.0634229	-0.464331	0.152344	1.44269	1.49298	0	0	-0.254189	-0.199374	-0.00621869	1.55038	1.28457	0	0
20.34	1.01194	1.46643	0.406656	0.666201	1.16176	0.972975	0.100088	0.0484892	-0.175604	0.318039	0.150689	0	0	-0.0678796	-0.0645554	-0.227716	0	0.0575144	0	0	-0.063292	0.149843	0.0923598	-0.0556056	-0.462622	0.155513	1.43849	1.48683	0	0	-0.24457	-0.202418	-0.00434273	1.54576	1.27841	0	0
20.35	0.978784	1.46556	0.439673	0.666316	1.16195	0.97268	0.105069	0.0479145	-0.17589	0.320381	0.15146	0	0	-0.0638391	-0.0641241	-0.22787	0	0.0571072	0	0	-0.0575091	0.149614	0.093174	-0.0482266	-0.46401	0.16863	1.43713	1.39145	0	0	-0.235291	-0.209086	0.00771143	1.54376	1.17923	0	0
20.36	0.882825	1.46101	0.531563	0.667046	1.16169	0.97192	0.119907	0.0474268	-0.170095	0.326331	0.152742	0	0	-0.0519766	-0.0632374	-0.23427	0	0.0594355	0	0	-0.043159	0.14938	0.0986614	-0.0444278	-0.464252	0.17597	1.43406	1.34437	0	0	-0.225801	-0.215151	0.0187793	1.53756	1.12386	0	0
20.37	0.968582	1.46547	0.45245	0.666874	1.16166	0.972714	0.106402	0.0480244	-0.17688	0.320998	0.150657	0	0	-0.0620892	-0.0644536	-0.226354	0	0.0565933	0	0	-0.0545203	0.149473	0.0919745	-0.0330075	-0.459483	0.174061	1.42646	1.39109	0	0	-0.216346	-0.214917	0.00955393	1.5336	1.17389	0	0
